<svg width="51" height="8" viewBox="0 0 51 8" fill="none" xmlns="http://www.w3.org/2000/svg">
<path d="M-0.000719642 7.99999H2.17954L8.16969 0L5.98944 0L-0.000719642 7.99999Z" fill="#E5DFD8" fill-opacity="0.4"/>
<path d="M5.32217 7.99999H7.50242L13.4926 0L11.3123 0L5.32217 7.99999Z" fill="#E5DFD8" fill-opacity="0.4"/>
<path d="M10.6451 7.99999H12.8253L18.8155 0L16.6352 0L10.6451 7.99999Z" fill="#E5DFD8" fill-opacity="0.4"/>
<path d="M15.9679 7.99999H18.1482L24.1384 0L21.9581 0C19.6188 3.12419 18.3072 4.8758 15.9679 7.99999Z" fill="#E5DFD8" fill-opacity="0.4"/>
<path d="M21.2908 7.99999H23.4711L29.4612 0L27.281 0L21.2908 7.99999Z" fill="#E5DFD8" fill-opacity="0.4"/>
<path d="M26.6137 7.99999H28.794L34.7841 0L32.6039 0L26.6137 7.99999Z" fill="#E5DFD8" fill-opacity="0.4"/>
<path d="M31.9366 7.99999H34.1169L40.107 0L37.9268 0L31.9366 7.99999Z" fill="#E5DFD8" fill-opacity="0.4"/>
<path d="M37.2595 7.99999H39.4398L45.4299 0L43.2497 0L37.2595 7.99999Z" fill="#E5DFD8" fill-opacity="0.4"/>
<path d="M42.5824 7.99999H44.7626L50.7528 0L48.5725 0L42.5824 7.99999Z" fill="#E5DFD8" fill-opacity="0.4"/>
</svg>
